<svg width="132" height="36" viewBox="0 0 132 36" fill="none" xmlns="http://www.w3.org/2000/svg">
<rect x="19.1617" y="2.3772" width="17.3814" height="25.9199" transform="rotate(28.8331 19.1617 2.3772)" fill="white"/>
<path d="M32.9389 5.8834L19.4389 0.258403C19.0277 0.08781 18.5869 0 18.1417 0C17.6965 0 17.2556 0.08781 16.8444 0.258403L3.3444 5.8834C2.08581 6.40371 1.26315 7.63418 1.26315 8.99824C1.26315 22.9553 9.31393 32.6021 16.8374 35.7381C17.6671 36.0826 18.6022 36.0826 19.4319 35.7381C25.4577 33.2279 35.0132 24.5584 35.0132 8.99824C35.0132 7.63418 34.1905 6.40371 32.9389 5.8834ZM18.1452 31.3787L18.1382 4.58965L30.5061 9.74356C30.2741 20.3889 24.7335 28.1021 18.1452 31.3787V31.3787Z" fill="#2865E9"/>
<path d="M19.798 10.8605H16.7493L12.9515 13.265V16.1414L16.4646 13.9392H16.5545V26.2014H19.798V10.8605Z" fill="#1E293B"/>
<path d="M19.798 10.8605H19.8683V10.7902H19.798V10.8605ZM16.7493 10.8605V10.7902H16.7289L16.7117 10.8011L16.7493 10.8605ZM12.9515 13.265L12.9139 13.2056L12.8812 13.2263V13.265H12.9515ZM12.9515 16.1414H12.8812V16.2685L12.9889 16.201L12.9515 16.1414ZM16.4646 13.9392V13.8689H16.4444L16.4273 13.8796L16.4646 13.9392ZM16.5545 13.9392H16.6248V13.8689H16.5545V13.9392ZM16.5545 26.2014H16.4842V26.2717H16.5545V26.2014ZM19.798 26.2014V26.2717H19.8683V26.2014H19.798ZM19.798 10.7902H16.7493V10.9308H19.798V10.7902ZM16.7117 10.8011L12.9139 13.2056L12.9891 13.3244L16.7869 10.9199L16.7117 10.8011ZM12.8812 13.265V16.1414H13.0218V13.265H12.8812ZM12.9889 16.201L16.502 13.9987L16.4273 13.8796L12.9142 16.0819L12.9889 16.201ZM16.4646 14.0095H16.5545V13.8689H16.4646V14.0095ZM16.4842 13.9392V26.2014H16.6248V13.9392H16.4842ZM16.5545 26.2717H19.798V26.1311H16.5545V26.2717ZM19.8683 26.2014V10.8605H19.7277V26.2014H19.8683Z" fill="black"/>
<path d="M19.6598 10.8622H16.6111L12.8133 13.2667V16.1431L16.3265 13.9409H16.4163V26.2031H19.6598V10.8622Z" fill="#1E293B"/>
<path d="M19.6598 10.8622H19.7301V10.7919H19.6598V10.8622ZM16.6111 10.8622V10.7919H16.5907L16.5735 10.8028L16.6111 10.8622ZM12.8133 13.2667L12.7757 13.2073L12.743 13.228V13.2667H12.8133ZM12.8133 16.1431H12.743V16.2702L12.8507 16.2027L12.8133 16.1431ZM16.3265 13.9409V13.8706H16.3062L16.2891 13.8813L16.3265 13.9409ZM16.4163 13.9409H16.4867V13.8706H16.4163V13.9409ZM16.4163 26.2031H16.346V26.2734H16.4163V26.2031ZM19.6598 26.2031V26.2734H19.7301V26.2031H19.6598ZM19.6598 10.7919H16.6111V10.9325H19.6598V10.7919ZM16.5735 10.8028L12.7757 13.2073L12.8509 13.3261L16.6487 10.9216L16.5735 10.8028ZM12.743 13.2667V16.1431H12.8836V13.2667H12.743ZM12.8507 16.2027L16.3638 14.0005L16.2891 13.8813L12.776 16.0836L12.8507 16.2027ZM16.3265 14.0112H16.4163V13.8706H16.3265V14.0112ZM16.346 13.9409V26.2031H16.4867V13.9409H16.346ZM16.4163 26.2734H19.6598V26.1328H16.4163V26.2734ZM19.7301 26.2031V10.8622H19.5895V26.2031H19.7301Z" fill="black"/>
<path d="M51.4211 15.2742H54.5297C54.4848 12.5401 52.2376 10.6525 48.8218 10.6525C45.4585 10.6525 42.9941 12.5102 43.0091 15.2967C43.0016 17.5589 44.5971 18.8548 47.1889 19.4765L48.8593 19.896C50.5297 20.3005 51.4586 20.7799 51.4661 21.8136C51.4586 22.9372 50.3949 23.7012 48.7469 23.7012C47.0615 23.7012 45.848 22.9222 45.7432 21.3866H42.6046C42.687 24.705 45.0615 26.4204 48.7844 26.4204C52.5297 26.4204 54.732 24.6301 54.7395 21.8211C54.732 19.2668 52.8069 17.9109 50.1402 17.3117L48.7619 16.9821C47.4286 16.675 46.3125 16.1806 46.3349 15.0795C46.3349 14.0907 47.2113 13.3641 48.7994 13.3641C50.3499 13.3641 51.3013 14.0682 51.4211 15.2742ZM60.1421 26.4204C61.8425 26.4204 62.9436 25.6788 63.5054 24.6076H63.5953V26.2031H66.6216V18.4428C66.6216 15.7012 64.2995 14.5476 61.7376 14.5476C58.9811 14.5476 57.1683 15.866 56.7264 17.9634L59.6777 18.2031C59.8949 17.439 60.5766 16.8772 61.7227 16.8772C62.8088 16.8772 63.4305 17.424 63.4305 18.3679V18.4128C63.4305 19.1544 62.644 19.2518 60.644 19.4465C58.3668 19.6563 56.3219 20.4203 56.3219 22.9896C56.3219 25.2668 57.9474 26.4204 60.1421 26.4204ZM61.056 24.2181C60.0747 24.2181 59.3706 23.7612 59.3706 22.8848C59.3706 21.9859 60.1122 21.5439 61.2358 21.3866C61.9324 21.2892 63.071 21.1244 63.453 20.8698V22.0907C63.453 23.2967 62.4568 24.2181 61.056 24.2181ZM75.2845 14.6974H72.9999V13.9259C72.9999 13.1469 73.3145 12.6899 74.2508 12.6899C74.6328 12.6899 75.0224 12.7723 75.277 12.8547L75.8388 10.4577C75.4418 10.3379 74.5654 10.1431 73.5842 10.1431C71.4193 10.1431 69.8089 11.3641 69.8089 13.866V14.6974H68.1834V17.0945H69.8089V26.2031H72.9999V17.0945H75.2845V14.6974ZM82.0655 26.4278C84.9119 26.4278 86.8295 25.0421 87.279 22.9072L84.3277 22.7125C84.0056 23.5889 83.1816 24.0458 82.1179 24.0458C80.5224 24.0458 79.5112 22.9896 79.5112 21.2743V21.2668H87.3464V20.3904C87.3464 16.4802 84.9793 14.5476 81.9381 14.5476C78.5523 14.5476 76.3576 16.9521 76.3576 20.5027C76.3576 24.1507 78.5224 26.4278 82.0655 26.4278ZM79.5112 19.2892C79.5786 17.9784 80.5748 16.9297 81.9906 16.9297C83.3763 16.9297 84.3351 17.9184 84.3426 19.2892H79.5112ZM89.4887 26.2031H99.309V23.529H92.7322V10.8622H89.4887V26.2031ZM101.397 26.2031H104.588V14.6974H101.397V26.2031ZM103 13.2143C103.951 13.2143 104.73 12.4877 104.73 11.5963C104.73 10.7124 103.951 9.98581 103 9.98581C102.056 9.98581 101.277 10.7124 101.277 11.5963C101.277 12.4877 102.056 13.2143 103 13.2143ZM110.335 19.5514C110.343 18.0682 111.227 17.1993 112.515 17.1993C113.796 17.1993 114.568 18.0383 114.56 19.4465V26.2031H117.751V18.8772C117.751 16.1956 116.178 14.5476 113.781 14.5476C112.073 14.5476 110.837 15.3866 110.32 16.7274H110.185V14.6974H107.144V26.2031H110.335V19.5514ZM120.266 26.2031H123.457V22.5477L124.319 21.5664L127.457 26.2031H131.195L126.708 19.6787L130.978 14.6974H127.315L123.629 19.0645H123.457V10.8622H120.266V26.2031Z" fill="#1E293B"/>
</svg>
